# xmcd
#
# Track frame offsets: 
#        150
#        12692
#        23855
#        37730
#        52602
#        66212
#        81690
#        96480
#        111197
#        129677
#
# Disc length: 1869 seconds
#
# Revision: 0
# Processed by: cddbd v1.4PL0 Copyright (c) Steve Scherf et al.
# Submitted via: ExactAudioCopy v0.90b4
#
DISCID=85074b0a
DTITLE=Holopaw - Holopaw
DYEAR=2003
DGENRE=Acoustic
TTITLE0=Abraham Lincoln
TTITLE1=Igloo Glass
TTITLE2=Hoover
TTITLE3=Short-Wave-Hum (Stutter)
TTITLE4=Hula-la
TTITLE5=Pony Apprehension
TTITLE6=Took it for a Twinkle
TTITLE7=Teacup Woozy
TTITLE8=Cinders
TTITLE9=Mammoth Cave
EXTD=
EXTT0=
EXTT1=
EXTT2=
EXTT3=
EXTT4=
EXTT5=
EXTT6=
EXTT7=
EXTT8=
EXTT9=
PLAYORDER=
